<svg width="18" height="19" viewBox="0 0 18 19" fill="none" xmlns="http://www.w3.org/2000/svg">
<g clip-path="url(#clip0_1_873)">
<path d="M13.5869 10.4857C13.1475 10.4857 12.7812 10.8723 12.7812 11.3362V17.4633C12.7812 17.9272 13.1475 18.3138 13.5869 18.3138C14.0264 18.3138 14.3926 17.9272 14.3926 17.4633V11.3555C14.411 10.8723 14.0447 10.4857 13.5869 10.4857Z" fill="#3066C2"/>
<path d="M17.9451 10.911C17.9451 9.78992 17.762 8.68819 17.3957 7.66378C17.0844 6.75533 16.6267 5.88555 16.059 5.1124C16.1322 4.93845 16.1872 4.74516 16.1872 4.5712C16.1872 4.24262 16.0773 3.93336 15.8393 3.68209C14.9054 2.69633 13.8433 1.96184 12.6897 1.4593C11.4995 0.937429 10.236 0.686157 8.97253 0.686157C7.70905 0.686157 6.44557 0.937429 5.25534 1.4593C4.10173 1.96184 3.03967 2.69633 2.1058 3.68209C1.86775 3.93336 1.75788 4.24262 1.75788 4.5712C1.75788 4.76449 1.79451 4.93845 1.88606 5.1124C1.31841 5.88555 0.860631 6.75533 0.549339 7.66378C0.201424 8.68819 0 9.78992 0 10.911V14.4095C0 15.2792 0.329603 16.0717 0.878942 16.6516C1.31841 17.1155 1.88606 17.4247 2.52696 17.5407V11.2976V11.2782C1.90437 11.3749 1.35504 11.6841 0.933876 12.1094V10.8917C0.933876 9.88656 1.09868 8.90081 1.42828 7.97303C1.70295 7.16123 2.1058 6.40742 2.6002 5.73092C2.72838 5.76958 2.85656 5.7889 2.98474 5.7889C3.27772 5.7889 3.5707 5.67293 3.79044 5.46032C3.80875 5.44099 3.80875 5.44099 3.82706 5.42166C4.52289 4.68717 5.32859 4.12665 6.18922 3.74007C7.08647 3.3535 8.03866 3.16022 8.99084 3.16022C9.94303 3.16022 10.8952 3.3535 11.7925 3.74007C12.6531 4.10732 13.4588 4.66785 14.1546 5.42166L14.1729 5.44099C14.411 5.67293 14.704 5.80823 15.0153 5.80823C15.1434 5.80823 15.2716 5.7889 15.3998 5.75025C15.8942 6.42675 16.2787 7.19989 16.5717 7.99236C16.883 8.92014 17.0661 9.90589 17.0661 10.911V12.1287C16.6267 11.7035 16.0773 11.3942 15.473 11.2976V11.3169V17.5407C16.1139 17.444 16.6816 17.1155 17.1211 16.6516C17.6704 16.0717 18 15.2986 18 14.4095V10.911H17.9451Z" fill="#3066C2"/>
<path d="M4.35794 10.4857C3.91847 10.4857 3.55225 10.8723 3.55225 11.3362V17.4633C3.55225 17.9272 3.91847 18.3138 4.35794 18.3138C4.79741 18.3138 5.16364 17.9272 5.16364 17.4633V11.3555C5.16364 10.8723 4.79741 10.4857 4.35794 10.4857Z" fill="#3066C2"/>
</g>
<defs>
<clipPath id="clip0_1_873">
<rect width="18" height="19" fill="white"/>
</clipPath>
</defs>
</svg>
