<svg width="617" height="58" viewBox="0 0 617 58" fill="none" xmlns="http://www.w3.org/2000/svg">
<path d="M399.743 13.055H402.228L396.904 5.80577L401.937 0.866055H399.388L393.646 6.67183V0.866055H391.613V13.055H393.646V9.01338L395.485 7.21712L399.743 13.055Z" fill="#7D808E"/>
<path d="M410.648 3.43214L405.938 10.3606V3.43214H404.034V13.055H406.035L410.745 6.06238V13.055H412.648V3.43214H410.648Z" fill="#7D808E"/>
<path d="M414.1 2.08495H416.197V0.16038H414.1V2.08495ZM417.423 2.08495H419.52V0.16038H417.423V2.08495ZM415.842 13.055H417.778V3.43214H415.842V13.055Z" fill="#7D808E"/>
<path d="M427.36 8.11525C428.231 7.73034 428.747 6.99259 428.747 5.93408C428.747 4.20197 427.425 3.43214 425.295 3.43214H420.972V13.055H425.65C427.747 13.055 429.006 12.1568 429.006 10.4247C429.006 9.26999 428.425 8.50017 427.36 8.11525ZM422.843 4.9718H425.392C426.295 4.9718 426.844 5.38878 426.844 6.15861C426.844 7.05674 426.392 7.40958 425.295 7.40958H422.843V4.9718ZM425.457 11.5153H422.843V8.853H425.328C426.425 8.853 427.07 9.36622 427.07 10.2002C427.07 11.0342 426.489 11.5153 425.457 11.5153Z" fill="#7D808E"/>
<path d="M435.458 13.2154C437.523 13.2154 439.233 12.1568 439.781 10.3285L437.942 9.75113C437.523 10.8738 436.62 11.5795 435.458 11.5795C433.684 11.5795 432.587 10.2644 432.587 8.24356C432.587 6.22276 433.684 4.90764 435.458 4.90764C436.652 4.90764 437.523 5.61332 437.942 6.73598L439.781 6.15861C439.233 4.33027 437.555 3.27176 435.458 3.27176C432.587 3.27176 430.619 5.29256 430.619 8.24356C430.619 11.1946 432.587 13.2154 435.458 13.2154Z" fill="#7D808E"/>
<path d="M446.427 7.05674H443.782V3.43214H441.846V13.055H446.427C448.557 13.055 449.912 11.8682 449.912 10.0398C449.912 8.21148 448.589 7.05674 446.427 7.05674ZM446.234 11.4512H443.782V8.62847H446.234C447.363 8.62847 447.944 9.14169 447.944 10.0398C447.944 10.9379 447.363 11.4512 446.234 11.4512Z" fill="#7D808E"/>
<path d="M458.623 13.055H460.978L456.751 7.28127L460.784 3.43214H458.332L453.977 7.73034V3.43214H452.041V13.055H453.977V9.91151L455.364 8.59639L458.623 13.055Z" fill="#7D808E"/>
<path d="M469.14 3.43214L464.43 10.3606V3.43214H462.526V13.055H464.527L469.237 6.06238V13.055H471.141V3.43214H469.14Z" fill="#7D808E"/>
<path d="M478.464 2.53401C480.142 2.53401 481.239 1.70003 481.4 0.256609L479.884 0C479.787 0.801902 479.271 1.25097 478.464 1.25097C477.658 1.25097 477.141 0.801902 477.045 0L475.528 0.256609C475.69 1.70003 476.787 2.53401 478.464 2.53401ZM480.787 3.43214L476.077 10.3606V3.43214H474.173V13.055H476.174L480.884 6.06238V13.055H482.787V3.43214H480.787Z" fill="#7D808E"/>
<path d="M497.628 3.43214V7.28127H492.918V3.43214H490.982V13.055H492.918V9.01338H497.628V13.055H499.564V3.43214H497.628Z" fill="#7D808E"/>
<path d="M510.469 11.387C510.049 11.387 509.856 11.1946 509.856 10.7776V6.4473C509.856 4.45858 508.436 3.27176 506.113 3.27176C504.436 3.27176 503.048 3.84913 501.919 4.90764L503.113 6.15861C503.887 5.35671 504.92 4.87557 506.016 4.87557C507.242 4.87557 508.049 5.38878 508.049 6.15861C508.049 6.89636 507.339 7.02467 505.887 7.21712C504.016 7.50581 501.726 8.01902 501.726 10.3927C501.726 12.0606 502.984 13.2154 504.887 13.2154C506.307 13.2154 507.597 12.5738 508.275 11.5795C508.404 12.7021 508.952 13.1191 510.146 13.1191C510.469 13.1191 510.727 13.087 510.824 13.055V11.387H510.469ZM505.21 11.6436C504.21 11.6436 503.629 11.1625 503.629 10.2644C503.629 9.01338 504.887 8.82093 506.113 8.62847C507.049 8.46809 507.63 8.37186 507.985 8.14733V9.3983C507.985 10.6172 506.694 11.6436 505.21 11.6436Z" fill="#7D808E"/>
<path d="M521.438 11.3549V3.43214H519.502V11.3549H514.921V3.43214H512.985V13.055H520.857V15.3003H522.696V11.3549H521.438Z" fill="#7D808E"/>
<path d="M524.89 2.08495H527.019V0.16038H524.89V2.08495ZM524.987 13.055H526.923V3.43214H524.987V13.055Z" fill="#7D808E"/>
<path d="M534.311 13.2154C537.214 13.2154 539.215 11.1946 539.215 8.24356C539.215 5.2284 537.279 3.27176 534.311 3.27176C531.407 3.27176 529.407 5.29256 529.407 8.24356C529.407 11.2587 531.343 13.2154 534.311 13.2154ZM534.311 11.5795C532.536 11.5795 531.375 10.2644 531.375 8.24356C531.375 6.22276 532.536 4.90764 534.311 4.90764C536.085 4.90764 537.247 6.22276 537.247 8.24356C537.247 10.2644 536.085 11.5795 534.311 11.5795Z" fill="#7D808E"/>
<path d="M548.184 3.43214V7.28127H543.473V3.43214H541.538V13.055H543.473V9.01338H548.184V13.055H550.12V3.43214H548.184Z" fill="#7D808E"/>
<path d="M561.024 11.387C560.605 11.387 560.411 11.1946 560.411 10.7776V6.4473C560.411 4.45858 558.992 3.27176 556.669 3.27176C554.991 3.27176 553.604 3.84913 552.475 4.90764L553.668 6.15861C554.443 5.35671 555.475 4.87557 556.572 4.87557C557.798 4.87557 558.605 5.38878 558.605 6.15861C558.605 6.89636 557.895 7.02467 556.443 7.21712C554.572 7.50581 552.281 8.01902 552.281 10.3927C552.281 12.0606 553.539 13.2154 555.443 13.2154C556.862 13.2154 558.153 12.5738 558.83 11.5795C558.959 12.7021 559.508 13.1191 560.702 13.1191C561.024 13.1191 561.282 13.087 561.379 13.055V11.387H561.024ZM555.765 11.6436C554.765 11.6436 554.185 11.1625 554.185 10.2644C554.185 9.01338 555.443 8.82093 556.669 8.62847C557.604 8.46809 558.185 8.37186 558.54 8.14733V9.3983C558.54 10.6172 557.25 11.6436 555.765 11.6436Z" fill="#7D808E"/>
<path d="M571.897 3.43214H564.057V8.40394C564.057 11.0663 563.799 11.2908 562.96 11.2908H562.444V13.055C562.67 13.087 562.992 13.1191 563.347 13.1191C565.218 13.1191 565.96 12.0927 565.96 8.59639V5.13218H569.961V13.055H571.897V3.43214Z" fill="#7D808E"/>
<path d="M579.511 7.05674H576.865V3.43214H574.93V13.055H579.511C581.64 13.055 582.995 11.8682 582.995 10.0398C582.995 8.21148 581.672 7.05674 579.511 7.05674ZM579.317 11.4512H576.865V8.62847H579.317C580.446 8.62847 581.027 9.14169 581.027 10.0398C581.027 10.9379 580.446 11.4512 579.317 11.4512Z" fill="#7D808E"/>
<path d="M591.771 3.43214V7.28127H587.06V3.43214H585.124V13.055H587.06V9.01338H591.771V13.055H593.706V3.43214H591.771Z" fill="#7D808E"/>
<path d="M603.353 3.43214L598.643 10.3606V3.43214H596.739V13.055H598.739L603.45 6.06238V13.055H605.353V3.43214H603.353Z" fill="#7D808E"/>
<path d="M612.677 2.53401C614.354 2.53401 615.451 1.70003 615.613 0.256609L614.096 0C614 0.801902 613.483 1.25097 612.677 1.25097C611.87 1.25097 611.354 0.801902 611.257 0L609.741 0.256609C609.902 1.70003 610.999 2.53401 612.677 2.53401ZM615 3.43214L610.289 10.3606V3.43214H608.386V13.055H610.386L615.096 6.06238V13.055H617V3.43214H615Z" fill="#7D808E"/>
<path d="M398.162 24.782L395.517 32.8331L392.129 24.782H390L394.549 35.0463C394.194 35.6879 393.807 36.0407 393.291 36.0407C392.452 36.0407 392.226 35.3992 392.258 34.6614L390.484 34.9501C390.484 36.4256 391.323 37.7728 393.259 37.7728C394.904 37.7728 395.969 36.4898 396.582 34.7577L400.163 24.782H398.162Z" fill="#7D808E"/>
<path d="M408.519 24.782V28.6311H403.808V24.782H401.873V34.4048H403.808V30.3632H408.519V34.4048H410.455V24.782H408.519Z" fill="#7D808E"/>
<path d="M413.552 23.4348H415.681V21.5102H413.552V23.4348ZM413.649 34.4048H415.584V24.782H413.649V34.4048Z" fill="#7D808E"/>
<path d="M425.166 29.4651C426.037 29.0802 426.554 28.3424 426.554 27.2839C426.554 25.5518 425.231 24.782 423.101 24.782H418.778V34.4048H423.456C425.553 34.4048 426.812 33.5067 426.812 31.7746C426.812 30.6198 426.231 29.85 425.166 29.4651ZM420.65 26.3216H423.198C424.102 26.3216 424.65 26.7386 424.65 27.5085C424.65 28.4066 424.198 28.7594 423.101 28.7594H420.65V26.3216ZM423.263 32.8652H420.65V30.2029H423.134C424.231 30.2029 424.876 30.7161 424.876 31.55C424.876 32.384 424.295 32.8652 423.263 32.8652Z" fill="#7D808E"/>
<path d="M430.361 30.2029H437.813C437.878 29.9783 437.878 29.8179 437.878 29.5934C437.878 26.5783 436.039 24.6216 433.2 24.6216C430.361 24.6216 428.425 26.6424 428.425 29.5934C428.425 32.4482 430.167 34.5652 433.361 34.5652C435.394 34.5652 436.749 33.7954 437.555 32.8331L436.232 31.6784C435.684 32.384 434.781 32.9293 433.361 32.9293C431.651 32.9293 430.586 31.8708 430.361 30.2029ZM433.2 26.2254C434.652 26.2254 435.652 27.1556 435.91 28.7274H430.393C430.683 27.1877 431.683 26.2254 433.2 26.2254Z" fill="#7D808E"/>
<path d="M445.266 24.6216C443.879 24.6216 442.717 25.2311 441.943 26.2896L441.814 24.782H440.136V37.6124H442.072V33.1218C442.814 34.052 443.943 34.5652 445.266 34.5652C447.75 34.5652 449.492 32.5444 449.492 29.5934C449.492 26.5783 447.815 24.6216 445.266 24.6216ZM444.75 32.9293C443.04 32.9293 441.943 31.6142 441.943 29.5934C441.943 27.5726 443.04 26.2575 444.75 26.2575C446.46 26.2575 447.524 27.5726 447.524 29.5934C447.524 31.6142 446.46 32.9293 444.75 32.9293Z" fill="#7D808E"/>
<path d="M455.945 34.5652C458.01 34.5652 459.72 33.5067 460.268 31.6784L458.429 31.101C458.01 32.2236 457.106 32.9293 455.945 32.9293C454.17 32.9293 453.073 31.6142 453.073 29.5934C453.073 27.5726 454.17 26.2575 455.945 26.2575C457.139 26.2575 458.01 26.9632 458.429 28.0858L460.268 27.5085C459.72 25.6801 458.042 24.6216 455.945 24.6216C453.073 24.6216 451.105 26.6424 451.105 29.5934C451.105 32.5444 453.073 34.5652 455.945 34.5652Z" fill="#7D808E"/>
<path d="M468.947 24.782L464.236 31.7104V24.782H462.333V34.4048H464.333L469.043 27.4122V34.4048H470.947V24.782H468.947Z" fill="#7D808E"/>
<path d="M481.69 24.782H472.786V26.482H476.27V34.4048H478.206V26.482H481.69V24.782Z" fill="#7D808E"/>
<path d="M484.271 30.2029H491.724C491.789 29.9783 491.789 29.8179 491.789 29.5934C491.789 26.5783 489.95 24.6216 487.111 24.6216C484.271 24.6216 482.336 26.6424 482.336 29.5934C482.336 32.4482 484.078 34.5652 487.272 34.5652C489.304 34.5652 490.659 33.7954 491.466 32.8331L490.143 31.6784C489.595 32.384 488.691 32.9293 487.272 32.9293C485.562 32.9293 484.497 31.8708 484.271 30.2029ZM487.111 26.2254C488.562 26.2254 489.563 27.1556 489.821 28.7274H484.304C484.594 27.1877 485.594 26.2254 487.111 26.2254Z" fill="#7D808E"/>
<path d="M501.274 24.782H492.369V26.482H495.854V34.4048H497.79V26.482H501.274V24.782Z" fill="#7D808E"/>
<path d="M514.856 34.4048H517.212L512.985 28.6311L517.018 24.782H514.566L510.211 29.0802V24.782H508.275V34.4048H510.211V31.2614L511.598 29.9462L514.856 34.4048Z" fill="#7D808E"/>
<path d="M525.632 24.782L522.987 32.8331L519.599 24.782H517.47L522.019 35.0463C521.664 35.6879 521.277 36.0407 520.761 36.0407C519.922 36.0407 519.696 35.3992 519.728 34.6614L517.954 34.9501C517.954 36.4256 518.792 37.7728 520.728 37.7728C522.374 37.7728 523.438 36.4898 524.051 34.7577L527.632 24.782H525.632Z" fill="#7D808E"/>
<path d="M537.569 24.782H529.73V29.7538C529.73 32.4161 529.471 32.6406 528.633 32.6406H528.116V34.4048C528.342 34.4369 528.665 34.469 529.02 34.469C530.891 34.469 531.633 33.4425 531.633 29.9462V26.482H535.634V34.4048H537.569V24.782Z" fill="#7D808E"/>
<path d="M545.183 28.4066H542.538V24.782H540.602V34.4048H545.183C547.313 34.4048 548.668 33.218 548.668 31.3897C548.668 29.5613 547.345 28.4066 545.183 28.4066ZM544.99 32.801H542.538V29.9783H544.99C546.119 29.9783 546.7 30.4915 546.7 31.3897C546.7 32.2878 546.119 32.801 544.99 32.801Z" fill="#7D808E"/>
<path d="M558.508 24.782H549.603V26.482H553.088V34.4048H555.023V26.482H558.508V24.782Z" fill="#7D808E"/>
<path d="M567.219 24.782L564.573 32.8331L561.186 24.782H559.056L563.605 35.0463C563.25 35.6879 562.863 36.0407 562.347 36.0407C561.508 36.0407 561.282 35.3992 561.315 34.6614L559.54 34.9501C559.54 36.4256 560.379 37.7728 562.315 37.7728C563.96 37.7728 565.025 36.4898 565.638 34.7577L569.219 24.782H567.219Z" fill="#7D808E"/>
<path d="M576.059 24.6216C574.671 24.6216 573.51 25.2311 572.736 26.2896L572.607 24.782H570.929V37.6124H572.865V33.1218C573.607 34.052 574.736 34.5652 576.059 34.5652C578.543 34.5652 580.285 32.5444 580.285 29.5934C580.285 26.5783 578.607 24.6216 576.059 24.6216ZM575.542 32.9293C573.833 32.9293 572.736 31.6142 572.736 29.5934C572.736 27.5726 573.833 26.2575 575.542 26.2575C577.252 26.2575 578.317 27.5726 578.317 29.5934C578.317 31.6142 577.252 32.9293 575.542 32.9293Z" fill="#7D808E"/>
<path d="M589.222 24.782L584.512 31.7104V24.782H582.608V34.4048H584.608L589.319 27.4122V34.4048H591.222V24.782H589.222Z" fill="#7D808E"/>
<path d="M599.481 23.4348H601.611V21.5102H599.481V23.4348ZM599.578 34.4048H601.514V24.782H599.578V34.4048Z" fill="#7D808E"/>
<path d="M402.711 46.1318H399.776L397.033 53.6056L394.259 46.1318H391.291V55.7547H393.162V48.1526L395.969 55.7547H398.033L400.84 48.1526V55.7547H402.711V46.1318Z" fill="#7D808E"/>
<path d="M412.358 46.1318L407.648 53.0603V46.1318H405.744V55.7547H407.744L412.455 48.7621V55.7547H414.358V46.1318H412.358Z" fill="#7D808E"/>
<path d="M421.521 55.9151C423.585 55.9151 425.295 54.8565 425.844 53.0282L424.005 52.4508C423.585 53.5735 422.682 54.2792 421.521 54.2792C419.746 54.2792 418.649 52.9641 418.649 50.9433C418.649 48.9225 419.746 47.6073 421.521 47.6073C422.714 47.6073 423.585 48.313 424.005 49.4357L425.844 48.8583C425.295 47.03 423.618 45.9715 421.521 45.9715C418.649 45.9715 416.681 47.9923 416.681 50.9433C416.681 53.8943 418.649 55.9151 421.521 55.9151Z" fill="#7D808E"/>
<path d="M435.426 46.1318H426.521V47.8319H430.006V55.7547H431.941V47.8319H435.426V46.1318Z" fill="#7D808E"/>
<path d="M438.007 51.5527H445.459C445.524 51.3282 445.524 51.1678 445.524 50.9433C445.524 47.9281 443.685 45.9715 440.846 45.9715C438.007 45.9715 436.071 47.9923 436.071 50.9433C436.071 53.798 437.813 55.9151 441.007 55.9151C443.04 55.9151 444.395 55.1452 445.201 54.1829L443.879 53.0282C443.33 53.7339 442.427 54.2792 441.007 54.2792C439.297 54.2792 438.233 53.2207 438.007 51.5527ZM440.846 47.5753C442.298 47.5753 443.298 48.5055 443.556 50.0772H438.039C438.329 48.5376 439.33 47.5753 440.846 47.5753Z" fill="#7D808E"/>
<path d="M456.235 54.0546V46.1318H454.299V54.0546H449.718V46.1318H447.782V55.7547H455.654V58H457.493V54.0546H456.235Z" fill="#7D808E"/>
<path d="M467.075 46.1318H458.171V47.8319H461.655V55.7547H463.591V47.8319H467.075V46.1318Z" fill="#7D808E"/>
<path d="M475.302 50.815C476.174 50.43 476.69 49.6923 476.69 48.6338C476.69 46.9017 475.367 46.1318 473.238 46.1318H468.914V55.7547H473.593C475.69 55.7547 476.948 54.8565 476.948 53.1244C476.948 51.9697 476.367 51.1999 475.302 50.815ZM470.786 47.6715H473.334C474.238 47.6715 474.786 48.0885 474.786 48.8583C474.786 49.7564 474.335 50.1093 473.238 50.1093H470.786V47.6715ZM473.399 54.215H470.786V51.5527H473.27C474.367 51.5527 475.012 52.0659 475.012 52.8999C475.012 53.7339 474.431 54.215 473.399 54.215Z" fill="#7D808E"/>
<path d="M36.3525 56.2727H49.6769L26.6488 22.9636L48.5183 1H34.6145L11.152 25.5818V1H0V56.2727H11.152V38.5273L18.828 30.8182L36.3525 56.2727Z" fill="#CE2D53"/>
<path d="M94.1399 1V22.8182H69.5187V1H58.3668V56.2727H69.5187V33H94.1399V56.2727H105.292V1H94.1399Z" fill="#CE2D53"/>
<path d="M155.403 1L143.238 34.6L126.148 1H113.692L138.748 45.8C137.589 47.4 135.996 47.9818 134.258 47.9818C131.217 47.9818 129.479 45.8 129.334 41.5818L120.499 43.7636C120.789 51.3273 125.858 57 133.824 57C142.369 57 146.713 51.4727 149.9 43.4727L166.99 1H155.403Z" fill="#CE2D53"/>
<path d="M212.611 56.2727H225.936L202.908 22.9636L224.777 1H210.873L187.411 25.5818V1H176.259V56.2727H187.411V38.5273L195.087 30.8182L212.611 56.2727Z" fill="#CE2D53"/>
<path d="M234.626 56.2727H245.778V1H234.626V56.2727Z" fill="#CE2D53"/>
<path d="M325 1H308.634L293.137 42.8909L277.785 1H261.13V56.2727H271.992V14.6727L287.344 56.2727H298.93L314.138 15.1091V56.2727H325V1Z" fill="#CE2D53"/>
</svg>
