<svg width="372" height="74" viewBox="0 0 372 74" fill="none" xmlns="http://www.w3.org/2000/svg">
<path d="M244.251 16.277H247.322L240.742 7.23865L246.964 1.0798H243.813L236.713 8.31845V1.0798H234.201V16.277H236.713V11.2379L238.987 8.99833L244.251 16.277Z" fill="#1740FE"/>
<path d="M257.732 4.2792L251.909 12.9176V4.2792H249.556V16.277H252.029L257.852 7.55859V16.277H260.205V4.2792H257.732Z" fill="#1740FE"/>
<path d="M262 2.59952H264.592V0.199963H262V2.59952ZM266.108 2.59952H268.7V0.199963H266.108V2.59952ZM264.154 16.277H266.547V4.2792H264.154V16.277Z" fill="#1740FE"/>
<path d="M278.392 10.1181C279.469 9.63821 280.107 8.71838 280.107 7.39862C280.107 5.23903 278.472 4.2792 275.84 4.2792H270.495V16.277H276.278C278.871 16.277 280.426 15.1572 280.426 12.9976C280.426 11.5578 279.708 10.598 278.392 10.1181ZM272.808 6.19885H275.959C277.076 6.19885 277.754 6.71875 277.754 7.67857C277.754 8.79836 277.196 9.23828 275.84 9.23828H272.808V6.19885ZM276.039 14.3573H272.808V11.0379H275.88C277.236 11.0379 278.033 11.6778 278.033 12.7176C278.033 13.7574 277.315 14.3573 276.039 14.3573Z" fill="#1740FE"/>
<path d="M288.403 16.4769C290.956 16.4769 293.07 15.1572 293.748 12.8776L291.474 12.1577C290.956 13.5575 289.839 14.4373 288.403 14.4373C286.21 14.4373 284.853 12.7976 284.853 10.2781C284.853 7.75856 286.21 6.11886 288.403 6.11886C289.879 6.11886 290.956 6.9987 291.474 8.39844L293.748 7.67857C293.07 5.399 290.996 4.07924 288.403 4.07924C284.853 4.07924 282.421 6.59877 282.421 10.2781C282.421 13.9574 284.853 16.4769 288.403 16.4769Z" fill="#1740FE"/>
<path d="M301.964 8.79836H298.693V4.2792H296.3V16.277H301.964C304.596 16.277 306.271 14.7972 306.271 12.5177C306.271 10.2381 304.636 8.79836 301.964 8.79836ZM301.724 14.2773H298.693V10.758H301.724C303.12 10.758 303.838 11.3979 303.838 12.5177C303.838 13.6375 303.12 14.2773 301.724 14.2773Z" fill="#1740FE"/>
<path d="M317.04 16.277H319.952L314.727 9.07831L319.712 4.2792H316.681L311.297 9.63821V4.2792H308.904V16.277H311.297V12.3577L313.012 10.718L317.04 16.277Z" fill="#1740FE"/>
<path d="M330.042 4.2792L324.219 12.9176V4.2792H321.866V16.277H324.339L330.162 7.55859V16.277H332.515V4.2792H330.042Z" fill="#1740FE"/>
<path d="M341.569 3.15941C343.643 3.15941 344.999 2.11961 345.198 0.31994L343.324 0C343.204 0.999814 342.566 1.55971 341.569 1.55971C340.572 1.55971 339.934 0.999814 339.814 0L337.939 0.31994C338.139 2.11961 339.495 3.15941 341.569 3.15941ZM344.44 4.2792L338.617 12.9176V4.2792H336.264V16.277H338.737L344.56 7.55859V16.277H346.913V4.2792H344.44Z" fill="#1740FE"/>
<path d="M244.052 27.6988L240.303 37.657L235.158 27.6988H232.286L239.226 40.1365C238.907 40.8164 238.388 40.9764 237.87 40.9764C236.992 40.9764 236.594 40.3765 236.514 39.1767L234.4 39.6966C234.48 41.6562 235.756 43.096 237.79 43.096C239.784 43.096 240.981 41.7362 241.739 39.8166L246.724 27.6988H244.052Z" fill="#1740FE"/>
<path d="M257.333 30.8983V35.6974H251.51V30.8983H249.117V42.896H251.51V37.857H257.333V42.896H259.726V30.8983H257.333Z" fill="#1740FE"/>
<path d="M263.555 29.2186H266.188V26.819H263.555V29.2186ZM263.675 42.896H266.068V30.8983H263.675V42.896Z" fill="#1740FE"/>
<path d="M277.914 36.7372C278.991 36.2573 279.629 35.3374 279.629 34.0177C279.629 31.8581 277.993 30.8983 275.361 30.8983H270.017V42.896H275.8C278.392 42.896 279.948 41.7762 279.948 39.6166C279.948 38.1769 279.23 37.2171 277.914 36.7372ZM272.33 32.8179H275.481C276.597 32.8179 277.275 33.3378 277.275 34.2976C277.275 35.4174 276.717 35.8573 275.361 35.8573H272.33V32.8179ZM275.56 40.9764H272.33V37.657H275.401C276.757 37.657 277.555 38.2969 277.555 39.3367C277.555 40.3765 276.837 40.9764 275.56 40.9764Z" fill="#1740FE"/>
<path d="M284.335 37.657H293.548C293.628 37.377 293.628 37.1771 293.628 36.8971C293.628 33.1378 291.355 30.6983 287.845 30.6983C284.335 30.6983 281.942 33.2178 281.942 36.8971C281.942 40.4565 284.096 43.096 288.044 43.096C290.557 43.096 292.232 42.1362 293.229 40.9364L291.594 39.4967C290.916 40.3765 289.799 41.0564 288.044 41.0564C285.93 41.0564 284.614 39.7366 284.335 37.657ZM287.845 32.6979C289.64 32.6979 290.876 33.8577 291.195 35.8173H284.375C284.734 33.8977 285.97 32.6979 287.845 32.6979Z" fill="#1740FE"/>
<path d="M302.761 30.6983C301.046 30.6983 299.611 31.4581 298.653 32.7779L298.494 30.8983H296.42V46.8953H298.813V41.2963C299.73 42.4561 301.126 43.096 302.761 43.096C305.833 43.096 307.986 40.5765 307.986 36.8971C307.986 33.1378 305.912 30.6983 302.761 30.6983ZM302.123 41.0564C300.009 41.0564 298.653 39.4167 298.653 36.8971C298.653 34.3776 300.009 32.7379 302.123 32.7379C304.237 32.7379 305.553 34.3776 305.553 36.8971C305.553 39.4167 304.237 41.0564 302.123 41.0564Z" fill="#1740FE"/>
<path d="M315.963 43.096C318.516 43.096 320.63 41.7762 321.308 39.4967L319.034 38.7768C318.516 40.1765 317.399 41.0564 315.963 41.0564C313.77 41.0564 312.413 39.4167 312.413 36.8971C312.413 34.3776 313.77 32.7379 315.963 32.7379C317.439 32.7379 318.516 33.6177 319.034 35.0175L321.308 34.2976C320.63 32.018 318.556 30.6983 315.963 30.6983C312.413 30.6983 309.981 33.2178 309.981 36.8971C309.981 40.5765 312.413 43.096 315.963 43.096Z" fill="#1740FE"/>
<path d="M332.036 30.8983L326.213 39.5366V30.8983H323.86V42.896H326.333L332.156 34.1776V42.896H334.509V30.8983H332.036Z" fill="#1740FE"/>
<path d="M347.791 30.8983H336.783V33.0179H341.09V42.896H343.483V33.0179H347.791V30.8983Z" fill="#1740FE"/>
<path d="M350.981 37.657H360.195C360.274 37.377 360.274 37.1771 360.274 36.8971C360.274 33.1378 358.001 30.6983 354.491 30.6983C350.981 30.6983 348.588 33.2178 348.588 36.8971C348.588 40.4565 350.742 43.096 354.691 43.096C357.203 43.096 358.879 42.1362 359.876 40.9364L358.24 39.4967C357.562 40.3765 356.446 41.0564 354.691 41.0564C352.577 41.0564 351.261 39.7366 350.981 37.657ZM354.491 32.6979C356.286 32.6979 357.522 33.8577 357.842 35.8173H351.021C351.38 33.8977 352.617 32.6979 354.491 32.6979Z" fill="#1740FE"/>
<path d="M372 30.8983H360.992V33.0179H365.3V42.896H367.693V33.0179H372V30.8983Z" fill="#1740FE"/>
<path d="M244.251 69.5151H247.322L240.742 60.4767L246.964 54.3179H243.813L236.713 61.5565V54.3179H234.201V69.5151H236.713V64.476L238.987 62.2364L244.251 69.5151Z" fill="#1740FE"/>
<path d="M258.051 57.5173L254.781 67.5554L250.593 57.5173H247.961L253.584 70.3149C253.146 71.1148 252.667 71.5547 252.029 71.5547C250.992 71.5547 250.713 70.7548 250.753 69.835L248.559 70.1949C248.559 72.0346 249.596 73.7143 251.989 73.7143C254.023 73.7143 255.339 72.1146 256.097 69.955L260.524 57.5173H258.051Z" fill="#1740FE"/>
<path d="M272.808 57.5173H263.117V63.7161C263.117 67.0355 262.798 67.3155 261.761 67.3155H261.122V69.5151C261.402 69.5551 261.8 69.5951 262.239 69.5951C264.552 69.5951 265.47 68.3153 265.47 63.9561V59.6369H270.415V69.5151H272.808V57.5173Z" fill="#1740FE"/>
<path d="M282.221 62.0365H278.951V57.5173H276.558V69.5151H282.221C284.853 69.5151 286.529 68.0353 286.529 65.7558C286.529 63.4762 284.893 62.0365 282.221 62.0365ZM281.982 67.5154H278.951V63.9961H281.982C283.378 63.9961 284.096 64.636 284.096 65.7558C284.096 66.8756 283.378 67.5154 281.982 67.5154Z" fill="#1740FE"/>
<path d="M298.693 57.5173H287.685V59.6369H291.993V69.5151H294.386V59.6369H298.693V57.5173Z" fill="#1740FE"/>
<path d="M309.462 57.5173L306.192 67.5554L302.004 57.5173H299.371L304.995 70.3149C304.556 71.1148 304.078 71.5547 303.44 71.5547C302.403 71.5547 302.123 70.7548 302.163 69.835L299.97 70.1949C299.97 72.0346 301.007 73.7143 303.4 73.7143C305.434 73.7143 306.75 72.1146 307.508 69.955L311.935 57.5173H309.462Z" fill="#1740FE"/>
<path d="M320.39 57.3173C318.675 57.3173 317.239 58.0772 316.282 59.3969L316.123 57.5173H314.049V73.5143H316.442V67.9154C317.359 69.0751 318.755 69.715 320.39 69.715C323.461 69.715 325.615 67.1955 325.615 63.5162C325.615 59.7569 323.541 57.3173 320.39 57.3173ZM319.752 67.6754C317.638 67.6754 316.282 66.0357 316.282 63.5162C316.282 60.9967 317.638 59.357 319.752 59.357C321.866 59.357 323.182 60.9967 323.182 63.5162C323.182 66.0357 321.866 67.6754 319.752 67.6754Z" fill="#1740FE"/>
<path d="M336.663 57.5173L330.84 66.1557V57.5173H328.487V69.5151H330.96L336.783 60.7967V69.5151H339.136V57.5173H336.663Z" fill="#1740FE"/>
<path d="M45.0122 69.3842H61.5106L32.997 28.0877L60.076 0.8573H42.8602L13.8085 31.3337V0.8573H0V69.3842H13.8085V47.3835L23.3131 37.8258L45.0122 69.3842Z" fill="#1740FE"/>
<path d="M114.951 0.8573L99.8875 42.5144L78.7264 0.8573H63.304L94.3283 56.4002C92.8936 58.3838 90.921 59.1052 88.769 59.1052C85.003 59.1052 82.8511 56.4002 82.6717 51.1705L71.7325 53.8755C72.0912 63.2529 78.3678 70.2859 88.231 70.2859C98.8116 70.2859 104.191 63.4332 108.137 53.5148L129.298 0.8573H114.951Z" fill="#1740FE"/>
<path d="M185.787 69.3842H202.286L173.772 28.0877L200.851 0.8573H183.635L154.584 31.3337V0.8573H140.775V69.3842H154.584V47.3835L164.088 37.8258L185.787 69.3842Z" fill="#1740FE"/>
</svg>
