<svg width="313" height="39" viewBox="0 0 313 39" fill="none" xmlns="http://www.w3.org/2000/svg">
<path d="M7.24009 27.4669V20.284H13.8266C15.1003 20.284 16.1897 20.0311 17.0947 19.5253C18.0332 19.0195 18.7539 18.3113 19.2566 17.4008C19.7594 16.4566 20.0108 15.3774 20.0108 14.1634C20.0108 12.882 19.7594 11.786 19.2566 10.8755C18.7539 9.93126 18.0332 9.22309 17.0947 8.75097C16.1897 8.24514 15.1003 7.99222 13.8266 7.99222H7.24009V0.809337H13.4243C16.5416 0.809337 19.2064 1.33204 21.4186 2.37743C23.6644 3.42283 25.3738 4.90662 26.547 6.82879C27.7537 8.75097 28.357 11.061 28.357 13.7588V14.5681C28.357 17.1984 27.7537 19.4916 26.547 21.4475C25.3738 23.3696 23.6644 24.8534 21.4186 25.8988C19.2064 26.9442 16.5416 27.4669 13.4243 27.4669H7.24009ZM0 38.0389V0.809337H8.24566V38.0389H0Z" fill="#3066C2"/>
<path d="M51.1328 39C47.8144 39 44.915 38.4267 42.4346 37.2802C39.9877 36.0999 37.9598 34.5655 36.3509 32.677C34.742 30.7549 33.5353 28.6809 32.7309 26.4553C31.9599 24.2296 31.5745 22.0882 31.5745 20.0311V18.9183C31.5745 16.6252 31.9767 14.3658 32.7811 12.1401C33.6191 9.88067 34.8593 7.84047 36.5017 6.01946C38.1442 4.19844 40.1888 2.74838 42.6357 1.66926C45.0826 0.55642 47.9149 0 51.1328 0C54.3506 0 57.1829 0.55642 59.6298 1.66926C62.0767 2.74838 64.1214 4.19844 65.7638 6.01946C67.4062 7.84047 68.6464 9.88067 69.4844 12.1401C70.3224 14.3658 70.7413 16.6252 70.7413 18.9183V20.0311C70.7413 22.0882 70.3391 24.2296 69.5347 26.4553C68.7302 28.6809 67.5235 30.7549 65.9146 32.677C64.3057 34.5655 62.2611 36.0999 59.7807 37.2802C57.3338 38.4267 54.4511 39 51.1328 39ZM51.1328 31.2607C52.8757 31.2607 54.4344 30.9572 55.8087 30.3502C57.2164 29.7432 58.4064 28.9001 59.3784 27.821C60.384 26.7419 61.1382 25.4942 61.641 24.0778C62.1437 22.6615 62.3951 21.144 62.3951 19.5253C62.3951 17.8054 62.127 16.2374 61.5907 14.821C61.0879 13.3709 60.3337 12.1232 59.3281 11.0778C58.3561 9.9987 57.1829 9.17251 55.8087 8.59922C54.4344 8.02594 52.8757 7.7393 51.1328 7.7393C49.3898 7.7393 47.8311 8.02594 46.4569 8.59922C45.0826 9.17251 43.8927 9.9987 42.8871 11.0778C41.915 12.1232 41.1776 13.3709 40.6748 14.821C40.1721 16.2374 39.9207 17.8054 39.9207 19.5253C39.9207 21.144 40.1721 22.6615 40.6748 24.0778C41.1776 25.4942 41.915 26.7419 42.8871 27.821C43.8927 28.9001 45.0826 29.7432 46.4569 30.3502C47.8311 30.9572 49.3898 31.2607 51.1328 31.2607Z" fill="#3066C2"/>
<path d="M84.2289 27.4669V20.284H90.8154C92.0891 20.284 93.1785 20.0311 94.0835 19.5253C95.022 19.0195 95.7427 18.3113 96.2455 17.4008C96.7483 16.4566 96.9996 15.3774 96.9996 14.1634C96.9996 12.882 96.7483 11.786 96.2455 10.8755C95.7427 9.93126 95.022 9.22309 94.0835 8.75097C93.1785 8.24514 92.0891 7.99222 90.8154 7.99222H84.2289V0.809337H90.4132C93.5304 0.809337 96.1952 1.33204 98.4074 2.37743C100.653 3.42283 102.363 4.90662 103.536 6.82879C104.743 8.75097 105.346 11.061 105.346 13.7588V14.5681C105.346 17.1984 104.743 19.4916 103.536 21.4475C102.363 23.3696 100.653 24.8534 98.4074 25.8988C96.1952 26.9442 93.5304 27.4669 90.4132 27.4669H84.2289ZM76.9888 38.0389V0.809337H85.2345V38.0389H76.9888Z" fill="#3066C2"/>
<path d="M110.524 38.0389V1.11284H118.77V38.0389H110.524ZM117.764 38.0389V30.7549H133.149V38.0389H117.764Z" fill="#3066C2"/>
<path d="M135.386 38.0389L147.503 1.11284H160.827L173.396 38.0389H164.849L154.693 6.82879L157.307 7.89105H150.821L153.536 6.82879L143.631 38.0389H135.386ZM144.587 28.8833L147.101 22.0039H161.48L164.044 28.8833H144.587Z" fill="#3066C2"/>
<path d="M183.775 38.0389L172.613 1.11284H181.11L189.959 32.2724L188.048 31.3113H193.177L191.166 32.2724L199.361 1.11284H207.607L197.199 38.0389H183.775Z" fill="#3066C2"/>
<path d="M225.227 39C221.908 39 219.109 38.4773 216.83 37.4319C214.551 36.3528 212.824 34.9027 211.651 33.0817C210.478 31.227 209.892 29.1025 209.892 26.7082H217.886C217.886 27.6524 218.137 28.5292 218.64 29.3385C219.176 30.1479 219.981 30.8055 221.053 31.3113C222.126 31.7834 223.517 32.0195 225.227 32.0195C226.768 32.0195 228.059 31.8171 229.098 31.4125C230.137 31.0078 230.925 30.4514 231.461 29.7432C231.997 29.0013 232.265 28.1582 232.265 27.214C232.265 26.0337 231.763 25.1064 230.757 24.4319C229.752 23.7237 228.126 23.2685 225.88 23.0661L223.115 22.8132C219.461 22.5097 216.545 21.3632 214.366 19.3735C212.188 17.3839 211.098 14.7536 211.098 11.4825C211.098 9.12192 211.651 7.08171 212.757 5.36187C213.897 3.64202 215.473 2.32685 217.484 1.41634C219.495 0.472114 221.875 0 224.623 0C227.506 0 229.969 0.505836 232.014 1.51751C234.092 2.49546 235.684 3.89494 236.791 5.71595C237.897 7.50324 238.45 9.6109 238.45 12.0389H230.405C230.405 11.1284 230.187 10.3022 229.752 9.56031C229.316 8.7847 228.662 8.16083 227.791 7.68872C226.953 7.2166 225.897 6.98055 224.623 6.98055C223.416 6.98055 222.394 7.18288 221.556 7.58755C220.752 7.99222 220.148 8.54864 219.746 9.25681C219.344 9.93126 219.143 10.6732 219.143 11.4825C219.143 12.5279 219.512 13.4384 220.249 14.214C220.986 14.9896 222.193 15.4449 223.869 15.5798L226.685 15.8327C229.366 16.0687 231.729 16.6589 233.774 17.6031C235.818 18.5136 237.411 19.7782 238.55 21.3969C239.723 22.9818 240.31 24.9209 240.31 27.214C240.31 29.5746 239.69 31.6485 238.45 33.4358C237.243 35.1894 235.517 36.5551 233.271 37.5331C231.025 38.511 228.344 39 225.227 39Z" fill="#3066C2"/>
<path d="M270.125 38.0389L257.455 20.7899H252.376L267.762 1.11284H277.214L263.387 18.7665L263.287 15.1751L280.08 38.0389H270.125ZM245.991 38.0389V1.11284H254.237V38.0389H245.991Z" fill="#3066C2"/>
<path d="M291.209 24.0272L280.5 1.11284H288.947L296.639 18.2607L295.181 17.8054H299.405L297.846 18.2607L304.784 1.11284H312.779L302.924 24.0272H291.209ZM293.019 38.0389V22.8638H301.114V38.0389H293.019Z" fill="#3066C2"/>
</svg>
