<svg width="57" height="57" viewBox="0 0 57 57" fill="none" xmlns="http://www.w3.org/2000/svg">
<path d="M28.4991 0C16.9292 0 7.5152 9.41396 7.5152 20.9851C7.5152 24.0033 8.13296 26.885 9.35039 29.5509C14.597 41.0316 24.6561 53.1529 27.6148 56.594C27.8365 56.8512 28.1596 56.9994 28.4997 56.9994C28.8398 56.9994 29.163 56.8512 29.3847 56.594C32.3422 53.1534 42.4013 41.0328 47.6496 29.5509C48.8677 26.885 49.4848 24.0033 49.4848 20.9851C49.4837 9.41396 40.0697 0 28.4991 0ZM28.4991 31.8848C22.489 31.8848 17.5988 26.9947 17.5988 20.9845C17.5988 14.9738 22.489 10.0836 28.4991 10.0836C34.5093 10.0836 39.3995 14.9738 39.3995 20.9845C39.4 26.9947 34.5099 31.8848 28.4991 31.8848Z" fill="#3066C2"/>
</svg>
