<svg aria-hidden="true" style="position: absolute; width: 0; height: 0; overflow: hidden;" version="1.1" xmlns="http://www.w3.org/2000/svg" xmlns:xlink="http://www.w3.org/1999/xlink">
<defs>
<symbol id="icon-close" viewBox="0 0 34 32">
<path d="M3.109 0l28.82 27.986-3.11 3.202-28.82-27.986 3.11-3.202z"></path>
<path d="M29.163 0l-28.82 27.986 3.11 3.202 28.82-27.986-3.11-3.202z"></path>
</symbol>
<symbol id="icon-facebook" viewBox="0 0 30 32">
<path d="M17.505 32v-14.596h4.639l0.696-5.69h-5.335v-3.632c0-1.647 0.431-2.769 2.671-2.769l2.852-0.001v-5.089c-0.493-0.068-2.186-0.223-4.157-0.223-4.115 0-6.932 2.651-6.932 7.519v4.196h-4.654v5.69h4.654v14.596h5.565z"></path>
</symbol>
<symbol id="icon-headphones" viewBox="0 0 30 32">
<path d="M22.883 17.66c-0.74 0-1.357 0.651-1.357 1.432v10.319c0 0.781 0.617 1.432 1.357 1.432s1.357-0.651 1.357-1.432v-10.287c0.031-0.814-0.586-1.465-1.357-1.465z"></path>
<path d="M30.223 18.376c0-1.888-0.308-3.744-0.925-5.469-0.524-1.53-1.295-2.995-2.251-4.297 0.123-0.293 0.216-0.619 0.216-0.912 0-0.553-0.185-1.074-0.586-1.497-1.573-1.66-3.362-2.897-5.305-3.744-2.005-0.879-4.133-1.302-6.261-1.302s-4.256 0.423-6.261 1.302c-1.943 0.846-3.732 2.083-5.304 3.744-0.401 0.423-0.586 0.944-0.586 1.497 0 0.326 0.062 0.619 0.216 0.912-0.956 1.302-1.727 2.767-2.251 4.297-0.586 1.725-0.925 3.581-0.925 5.469v5.892c0 1.465 0.555 2.8 1.48 3.776 0.74 0.781 1.696 1.302 2.776 1.497v-10.547c-1.049 0.163-1.974 0.684-2.683 1.4v-2.051c0-1.693 0.278-3.353 0.833-4.916 0.463-1.367 1.141-2.637 1.974-3.776 0.216 0.065 0.432 0.098 0.648 0.098 0.493 0 0.987-0.195 1.357-0.553 0.031-0.033 0.031-0.033 0.062-0.065 1.172-1.237 2.529-2.181 3.978-2.832 1.511-0.651 3.115-0.977 4.719-0.977s3.207 0.326 4.719 0.977c1.449 0.619 2.806 1.563 3.978 2.832l0.031 0.033c0.401 0.391 0.894 0.618 1.419 0.618 0.216 0 0.432-0.033 0.648-0.098 0.833 1.139 1.48 2.441 1.974 3.776 0.524 1.563 0.833 3.223 0.833 4.916v2.051c-0.74-0.716-1.665-1.237-2.683-1.4v10.515c1.079-0.163 2.036-0.716 2.776-1.497 0.925-0.977 1.48-2.279 1.48-3.776v-5.892h-0.092z"></path>
<path d="M7.34 17.66c-0.74 0-1.357 0.651-1.357 1.432v10.319c0 0.781 0.617 1.432 1.357 1.432s1.357-0.651 1.357-1.432v-10.287c0-0.814-0.617-1.465-1.357-1.465z"></path>
</symbol>
<symbol id="icon-instagram" viewBox="0 0 32 32">
<path d="M24 0h-16c-4.4 0-8 3.599-8 8v16c0 4.4 3.6 8 8 8h16c4.4 0 8-3.6 8-8v-16c0-4.401-3.6-8-8-8zM16 22.666c-3.682 0-6.667-2.986-6.667-6.666 0-3.682 2.984-6.667 6.667-6.667 3.681 0 6.667 2.984 6.667 6.667 0 3.681-2.986 6.666-6.667 6.666zM24.667 9.333c-1.106 0-2-0.896-2-2s0.894-2 2-2c1.106 0 2 0.896 2 2s-0.894 2-2 2z"></path>
</symbol>
<symbol id="icon-map" viewBox="0 0 32 32">
<path d="M15.999 0c-6.495 0-11.78 5.285-11.78 11.781 0 1.694 0.347 3.312 1.030 4.809 2.945 6.445 8.593 13.25 10.254 15.182 0.124 0.144 0.306 0.228 0.497 0.228s0.372-0.083 0.497-0.228c1.66-1.932 7.308-8.736 10.254-15.182 0.684-1.497 1.030-3.114 1.030-4.809-0.001-6.496-5.286-11.781-11.781-11.781zM15.999 17.9c-3.374 0-6.119-2.745-6.119-6.119s2.745-6.12 6.119-6.12c3.374 0 6.12 2.745 6.12 6.12s-2.745 6.119-6.12 6.119z"></path>
</symbol>
<symbol id="icon-menu" viewBox="0 0 58 32">
<path d="M0 0h57.6v6.4h-57.6v-6.4z"></path>
<path d="M0 12.8h57.6v6.4h-57.6v-6.4z"></path>
<path d="M0 25.6h57.6v6.4h-57.6v-6.4z"></path>
</symbol>
<symbol id="icon-tik-tok" viewBox="0 0 32 32">
<path d="M30.020 8.024c-1.826 0-3.511-0.605-4.864-1.626-1.552-1.17-2.667-2.886-3.061-4.864-0.097-0.489-0.15-0.993-0.155-1.51h-5.217v14.255l-0.006 7.808c0 2.087-1.359 3.858-3.244 4.48-0.547 0.181-1.137 0.266-1.752 0.232-0.785-0.043-1.521-0.28-2.16-0.662-1.361-0.814-2.283-2.29-2.308-3.979-0.039-2.639 2.094-4.791 4.732-4.791 0.521 0 1.021 0.085 1.489 0.239v-5.297c-0.494-0.073-0.996-0.111-1.504-0.111-2.887 0-5.587 1.2-7.517 3.362-1.459 1.634-2.334 3.718-2.469 5.904-0.177 2.871 0.874 5.601 2.911 7.614 0.299 0.296 0.614 0.57 0.942 0.823 1.747 1.344 3.882 2.073 6.132 2.073 0.508 0 1.011-0.038 1.504-0.111 2.101-0.311 4.040-1.273 5.57-2.786 1.88-1.858 2.919-4.325 2.93-6.951l-0.027-11.66c0.897 0.692 1.878 1.264 2.93 1.709 1.637 0.691 3.372 1.041 5.159 1.040v-5.194c0.001 0.001-0.014 0.001-0.015 0.001z"></path>
</symbol>
<symbol id="icon-twitter" viewBox="0 0 32 32">
<path d="M32 6.078c-1.19 0.522-2.458 0.868-3.78 1.036 1.36-0.812 2.398-2.088 2.886-3.626-1.268 0.756-2.668 1.29-4.16 1.588-1.204-1.282-2.92-2.076-4.792-2.076-3.632 0-6.556 2.948-6.556 6.562 0 0.52 0.044 1.020 0.152 1.496-5.454-0.266-10.28-2.88-13.522-6.862-0.566 0.982-0.898 2.106-0.898 3.316 0 2.272 1.17 4.286 2.914 5.452-1.054-0.020-2.088-0.326-2.964-0.808 0 0.020 0 0.046 0 0.072 0 3.188 2.274 5.836 5.256 6.446-0.534 0.146-1.116 0.216-1.72 0.216-0.42 0-0.844-0.024-1.242-0.112 0.85 2.598 3.262 4.508 6.13 4.57-2.232 1.746-5.066 2.798-8.134 2.798-0.538 0-1.054-0.024-1.57-0.090 2.906 1.874 6.35 2.944 10.064 2.944 12.072 0 18.672-10 18.672-18.668 0-0.29-0.010-0.57-0.024-0.848 1.302-0.924 2.396-2.078 3.288-3.406z"></path>
</symbol>
<symbol id="icon-YT" viewBox="0 0 32 32">
<path d="M29.039 16.201c-0.331-1.437-1.506-2.496-2.92-2.654-3.349-0.374-6.74-0.376-10.114-0.374-3.376-0.002-6.766 0-10.116 0.374-1.414 0.158-2.588 1.218-2.918 2.654-0.471 2.046-0.476 4.279-0.476 6.385s0 4.339 0.471 6.385c0.33 1.436 1.505 2.496 2.919 2.654 3.349 0.375 6.739 0.376 10.115 0.375 3.376 0.002 6.765 0 10.116-0.375 1.414-0.158 2.589-1.218 2.919-2.654 0.47-2.046 0.473-4.279 0.473-6.385s0.003-4.34-0.467-6.385zM10.198 17.786h-1.955v10.389h-1.816v-10.389h-1.919v-1.702h5.691v1.702zM15.131 28.175h-1.634v-0.983c-0.649 0.744-1.265 1.107-1.865 1.107-0.526 0-0.888-0.213-1.052-0.669-0.089-0.273-0.144-0.704-0.144-1.34v-7.124h1.632v6.633c0 0.383 0 0.581 0.015 0.635 0.039 0.253 0.163 0.382 0.382 0.382 0.328 0 0.67-0.252 1.032-0.764v-6.885h1.634l0 9.009zM21.332 25.471c0 0.833-0.056 1.433-0.165 1.815-0.218 0.67-0.655 1.013-1.304 1.013-0.581 0-1.141-0.323-1.687-0.997v0.873h-1.632v-12.091h1.632v3.949c0.527-0.649 1.087-0.977 1.687-0.977 0.649 0 1.086 0.342 1.304 1.016 0.11 0.362 0.165 0.958 0.165 1.811v3.588zM27.493 23.968h-3.265v1.597c0 0.834 0.273 1.25 0.834 1.25 0.402 0 0.636-0.218 0.729-0.655 0.015-0.089 0.037-0.451 0.037-1.106h1.665v0.238c0 0.526-0.020 0.889-0.035 1.052-0.055 0.361-0.183 0.689-0.381 0.978-0.452 0.654-1.122 0.977-1.975 0.977-0.854 0-1.504-0.307-1.976-0.922-0.346-0.451-0.524-1.161-0.524-2.119v-3.155c0-0.963 0.158-1.668 0.505-2.123 0.472-0.616 1.121-0.923 1.955-0.923 0.819 0 1.468 0.307 1.926 0.923 0.342 0.455 0.505 1.16 0.505 2.123v1.865h-0.001z"></path>
<path d="M25.048 20.526c-0.546 0-0.819 0.417-0.819 1.25v0.834h1.632v-0.834c-0-0.833-0.273-1.25-0.813-1.25z"></path>
<path d="M18.99 20.526c-0.269 0-0.541 0.127-0.814 0.397v5.491c0.273 0.273 0.545 0.402 0.814 0.402 0.471 0 0.71-0.402 0.71-1.216v-3.845c0-0.812-0.239-1.229-0.71-1.229z"></path>
<path d="M19.901 12.342c0.602 0 1.228-0.366 1.884-1.118v0.993h1.65v-9.104h-1.65v6.958c-0.366 0.517-0.712 0.772-1.042 0.772-0.221 0-0.351-0.131-0.387-0.386-0.020-0.054-0.020-0.255-0.020-0.641v-6.703h-1.645v7.199c0 0.643 0.055 1.078 0.146 1.354 0.166 0.461 0.532 0.677 1.063 0.677z"></path>
<path d="M8.417 7.269v4.948h1.829v-4.948l2.201-7.269h-1.85l-1.248 4.798-1.299-4.798h-1.925c0.386 1.132 0.787 2.271 1.173 3.404 0.587 1.704 0.953 2.988 1.119 3.865z"></path>
<path d="M14.899 12.342c0.826 0 1.469-0.311 1.924-0.932 0.346-0.456 0.512-1.173 0.512-2.141v-3.188c0-0.973-0.166-1.685-0.512-2.145-0.456-0.623-1.098-0.934-1.924-0.934-0.822 0-1.464 0.311-1.921 0.934-0.35 0.46-0.516 1.171-0.516 2.145v3.188c0 0.968 0.166 1.685 0.516 2.141 0.456 0.621 1.099 0.932 1.921 0.932zM14.112 5.75c0-0.842 0.255-1.262 0.787-1.262s0.787 0.42 0.787 1.262v3.83c0 0.842-0.255 1.264-0.787 1.264s-0.787-0.421-0.787-1.264v-3.83z"></path>
</symbol>
</defs>
</svg>
