<svg width="19" height="19" viewBox="0 0 19 19" fill="none" xmlns="http://www.w3.org/2000/svg">
<path d="M17.8243 4.7644C16.74 4.7644 15.7395 4.40519 14.9361 3.79919C14.0147 3.1045 13.3526 2.08548 13.1188 0.910967C13.061 0.620771 13.0298 0.321299 13.0268 0.0144043H9.92929V8.47831L9.92558 13.1144C9.92558 14.3538 9.11845 15.4048 7.99961 15.7744C7.6749 15.8816 7.32422 15.9325 6.95906 15.9124C6.49297 15.8868 6.05619 15.7462 5.67656 15.5191C4.86869 15.0359 4.32095 14.1594 4.30611 13.1567C4.28273 11.5896 5.54965 10.3119 7.11566 10.3119C7.42478 10.3119 7.72166 10.3624 7.99961 10.454V8.14062V7.30899C7.70644 7.26558 7.40808 7.24294 7.10638 7.24294C5.3923 7.24294 3.78918 7.95544 2.64324 9.23905C1.77711 10.2091 1.25758 11.4467 1.17742 12.7444C1.0724 14.4492 1.69621 16.0698 2.90597 17.2654C3.08373 17.441 3.27039 17.6039 3.46558 17.7542C4.50279 18.5524 5.77082 18.9851 7.10638 18.9851C7.40808 18.9851 7.70644 18.9628 7.99961 18.9194C9.24722 18.7346 10.3984 18.1635 11.3068 17.2654C12.423 16.1622 13.0398 14.6975 13.0465 13.1385L13.0305 6.21538C13.563 6.62618 14.1453 6.9661 14.7702 7.22995C15.7421 7.64001 16.7726 7.84782 17.8332 7.84745V5.59825V4.76366C17.834 4.7644 17.8251 4.7644 17.8243 4.7644Z" fill="#3066C2"/>
</svg>
