<svg width="19" height="19" viewBox="0 0 19 19" fill="none" xmlns="http://www.w3.org/2000/svg">
<path d="M17.2417 9.61918C17.0454 8.76617 16.3476 8.13693 15.5078 8.04327C13.5195 7.82116 11.5061 7.82012 9.50251 7.82116C7.4981 7.82012 5.4851 7.82116 3.49619 8.04327C2.6568 8.13714 1.95947 8.76638 1.76334 9.61918C1.48382 10.8339 1.48047 12.1598 1.48047 13.4105C1.48047 14.6612 1.48047 15.9869 1.75999 17.2016C1.95611 18.0544 2.65345 18.6837 3.49326 18.7775C5.48175 18.9999 7.49475 19.0007 9.49895 18.9999C11.5034 19.0009 13.5159 18.9999 15.5051 18.7775C16.3445 18.6837 17.0422 18.0544 17.2383 17.2016C17.5176 15.9869 17.5191 14.6612 17.5191 13.4105C17.5189 12.1596 17.521 10.8339 17.2417 9.61918ZM6.05524 10.5606H4.89442V16.7289H3.81615V10.5606H2.67649V9.55025H6.05524V10.5606ZM8.98391 16.7291H8.01398V16.1456C7.62864 16.5873 7.26279 16.8027 6.90638 16.8027C6.59396 16.8027 6.37898 16.6761 6.28196 16.4052C6.22916 16.2434 6.19647 15.9874 6.19647 15.6098V11.3801H7.16557V15.3183C7.16557 15.5455 7.16557 15.6634 7.17437 15.6953C7.19763 15.8457 7.27118 15.922 7.40109 15.922C7.59554 15.922 7.79879 15.7722 8.01377 15.4681V11.3801H8.9837L8.98391 16.7291ZM12.6661 15.1237C12.6661 15.6184 12.6328 15.9748 12.568 16.2015C12.4385 16.5994 12.1793 16.8027 11.7938 16.8027C11.4489 16.8027 11.1161 16.6112 10.792 16.2109V16.7293H9.82289V9.55025H10.792V11.8947C11.105 11.5094 11.4374 11.3145 11.7938 11.3145C12.1793 11.3145 12.4387 11.5176 12.568 11.918C12.6332 12.1332 12.6661 12.4869 12.6661 12.9933V15.1237ZM16.3239 14.2313H14.3855V15.1794C14.3855 15.6745 14.5475 15.9218 14.8806 15.9218C15.1193 15.9218 15.2582 15.7921 15.3135 15.5331C15.3226 15.4805 15.3353 15.2651 15.3353 14.8764H16.3241V15.0178C16.3241 15.3303 16.3122 15.5455 16.3034 15.6423C16.2709 15.8568 16.1946 16.0515 16.0771 16.2229C15.8087 16.6114 15.411 16.8029 14.9047 16.8029C14.3977 16.8029 14.0117 16.6204 13.7316 16.2552C13.526 15.9874 13.4204 15.5658 13.4204 14.9973V13.1239C13.4204 12.552 13.5141 12.1338 13.72 11.8635C14 11.4975 14.3857 11.3152 14.8809 11.3152C15.3672 11.3152 15.7527 11.4975 16.0243 11.8635C16.2273 12.1338 16.3243 12.552 16.3243 13.1239V14.2313H16.3239Z" fill="#3066C2"/>
<path d="M14.8721 12.1873C14.5481 12.1873 14.3857 12.4347 14.3857 12.9292V13.4241H15.3548V12.9292C15.3546 12.4347 15.1927 12.1873 14.8721 12.1873Z" fill="#3066C2"/>
<path d="M11.2754 12.1873C11.1157 12.1873 10.954 12.2627 10.792 12.423V15.6831C10.9538 15.8453 11.1157 15.922 11.2754 15.922C11.5549 15.922 11.697 15.6831 11.697 15.2002V12.9171C11.697 12.4347 11.5549 12.1873 11.2754 12.1873Z" fill="#3066C2"/>
<path d="M11.8165 7.32811C12.1738 7.32811 12.5455 7.11103 12.9354 6.66431V7.25394H13.915V1.84814H12.9354V5.97975C12.7183 6.28651 12.5126 6.43822 12.3167 6.43822C12.1855 6.43822 12.1084 6.36069 12.087 6.20878C12.0751 6.17672 12.0751 6.05749 12.0751 5.82805V1.84814H11.0986V6.12266C11.0986 6.50443 11.1313 6.76279 11.1854 6.92643C11.2839 7.2003 11.5011 7.32811 11.8165 7.32811Z" fill="#3066C2"/>
<path d="M4.99744 4.316V7.25389H6.08367V4.316L7.39033 0H6.29195L5.55082 2.84863L4.77973 0H3.63672C3.86574 0.672398 4.10398 1.34815 4.333 2.02117C4.68146 3.03281 4.89896 3.79552 4.99744 4.316Z" fill="#3066C2"/>
<path d="M8.84646 7.32806C9.33719 7.32806 9.71855 7.14346 9.98906 6.77468C10.1946 6.50417 10.2931 6.07797 10.2931 5.50343V3.61049C10.2931 3.03259 10.1948 2.61017 9.98906 2.33714C9.71855 1.96732 9.3374 1.78271 8.84646 1.78271C8.35825 1.78271 7.9771 1.96732 7.70596 2.33714C7.4979 2.61017 7.39941 3.03259 7.39941 3.61049V5.50343C7.39941 6.07797 7.4979 6.50417 7.70596 6.77468C7.97689 7.14346 8.35825 7.32806 8.84646 7.32806ZM8.37899 3.41415C8.37899 2.91399 8.53069 2.66465 8.84646 2.66465C9.16223 2.66465 9.31352 2.91378 9.31352 3.41415V5.68803C9.31352 6.18819 9.16223 6.43837 8.84646 6.43837C8.53069 6.43837 8.37899 6.18819 8.37899 5.68803V3.41415Z" fill="#3066C2"/>
</svg>
